<svg id="Слой_4" data-name="Слой 4" xmlns="http://www.w3.org/2000/svg" viewBox="0 0 248.96 180.2">
    <defs>
        <style>.cls-1{fill:#eb5346;}</style>
    </defs>
    <title>дверь</title>
    <path class="cls-1"
          d="M1163.58,243.84c-1.51-6.93,5.38-50.22,7.51-63.26a3.17,3.17,0,0,0-3.16-3.68c-18.79.17-102.09,1.13-121.35,5.28-20,4.3-39.85,18.19-57.49,28.88-17.36,10.53-45,22.62-52.47,44.44-1.79,5.21-3.35,10.61-4.71,16.11-4.1,16.66-6.35,34.34-7.69,50.84-0.66,8.16.08,19.88,1.35,31.79a3.18,3.18,0,0,0,3.2,2.85l233.14-2.84a3.17,3.17,0,0,0,3.09-2.63c4.27-24.82,7.63-62.53,7.93-73.83C1173.32,263.28,1165.36,252,1163.58,243.84Zm-163.91,32c0,3.24-2.4,5.8-5.26,5.51-9.91-1-30.47-4-33.93-11-2-4.06-3.71-8.28-5.34-12.53a1.09,1.09,0,0,1-.1-0.59,0.93,0.93,0,0,1,.29-0.45c4.27-4.27,10-6.12,15.38-7.93,7.61-2.57,15.12-5.93,23-7.3a4.81,4.81,0,0,1,5.27,3.43,6.1,6.1,0,0,1,.33,1.92Zm157.71,9.51a4.39,4.39,0,0,1-4,4.68l-53.27.65a4.39,4.39,0,0,1-4.15-4.58v-0.84a4.39,4.39,0,0,1,4-4.68l53.27-.65a4.39,4.39,0,0,1,4.15,4.58v0.84ZM1148,252.23l-140.6,1.71a3.17,3.17,0,0,1-3.2-2.87l-1.29-13.53a3.27,3.27,0,0,0-3.66-3.16c-5.26,1-19.42,5.46-31.08,9.32a3.17,3.17,0,0,1-2.91-5.55c18.82-14.11,52.73-37,81.93-43.37,37.36-8.12,92-6,105.8-5.3a3.17,3.17,0,0,1,3,3.44l-4.86,56.39A3.17,3.17,0,0,1,1148,252.23Z"
          transform="translate(-923.98 -176.9)"/>
</svg>