<svg id="Слой_5" data-name="Слой 5" xmlns="http://www.w3.org/2000/svg" viewBox="0 0 244.58 72.46">
    <defs>
        <style>.cls-1{fill:#eb5346;}</style>
    </defs>
    <title>передний_бампер</title>
    <path class="cls-1"
          d="M541.29,33.14l-6,13.51s-28.17,9.2-66.62,10.92a22.34,22.34,0,0,1-5.3,2.59c-3.31,1.15-42.08,0-42.08,0s-38.76,1.15-42.08,0a22.34,22.34,0,0,1-5.3-2.59c-38.45-1.72-66.62-10.92-66.62-10.92l-6-13.51L299,46.93s0.66,22.71,2.32,27.3,5,4,5.3,6.32,2.32,10.92,12.6,15.52c8.33,3.73,70.29,7.84,93.4,9.26a141.45,141.45,0,0,0,17.33,0c23.12-1.42,85.07-5.53,93.4-9.26,10.28-4.6,12.26-13.22,12.6-15.52s3.65-1.72,5.3-6.32,2.32-27.3,2.32-27.3ZM354.08,96.24l-25.51-2.67a1.86,1.86,0,0,1-1.16-.55l-5.5-5.83c-1-1.1.06-2.73,1.67-2.48L351,88.79a1.82,1.82,0,0,1,1.15.63l3.58,4.42C356.62,94.92,355.6,96.4,354.08,96.24Zm53.34-4.18v2.59l-36.13-2.16L368,90.33C369,90.33,407.42,92.06,407.42,92.06ZM408,99.41L371.9,97.25l-3.31-2.16c1,0,39.44,1.72,39.44,1.72v2.59Zm62.71-2.16-36.13,2.16V96.82s38.45-1.72,39.44-1.72Zm0.61-4.76-36.13,2.16V92.06s38.45-1.72,39.44-1.72Zm49.37-5.3L515.23,93a1.86,1.86,0,0,1-1.16.55l-25.51,2.67c-1.52.16-2.54-1.32-1.66-2.41l3.58-4.42a1.82,1.82,0,0,1,1.15-.63l27.42-4.08C520.67,84.46,521.76,86.09,520.72,87.19Z"
          transform="translate(-299.03 -33.14)"/>
</svg>