<svg id="Слой_2" data-name="Слой 2" xmlns="http://www.w3.org/2000/svg" viewBox="0 0 187.35 90.19">
    <defs>
        <style>.cls-1{fill:#eb5346;}</style>
    </defs>
    <title>капот</title>
    <path class="cls-1"
          d="M233.15,50.8A43.27,43.27,0,0,0,222.4,39.17c-12.27-9-28-12.11-42.85-13.78A233.92,233.92,0,0,0,146,24.47c-9.26.3-19.46,0.85-26.63,7.51a22.42,22.42,0,0,0-2,2.11c-5.12,6.16-5.29,12.93-6.46,20.38-0.55,3.55-.9,8.65-2.67,11.84-1.15,2.07-6,7.14-12.44,6.45A15.44,15.44,0,0,1,84.5,66.32C83.64,64.95,76,38.95,72.18,25.74a1,1,0,0,0-1.88.3c0.3,8.66.59,21.38-.32,21.38H69.56a1,1,0,0,0-1,1v7.3a1,1,0,0,1-1,1H53.9a1,1,0,0,0-1,1v4.06a1,1,0,0,0,1,1c3.51,0,15.32-.18,14.93,0s-1.61,12,.69,18.66c1.56,4.51,2.9,8,3.61,9.74a1,1,0,0,1-.89,1.31H60.59a5.16,5.16,0,0,0-5.16,5.35l0.3,8.23a5.45,5.45,0,0,0,5.74,5.25l20.33-1.07a1,1,0,0,1,.69.25,15.9,15.9,0,0,0,10.67,4.11h31.92a23.32,23.32,0,0,0,10.79-2.65,1,1,0,0,1,.48-0.11c15.37,0.67,30.78,1.25,46.15.22,11.61-.78,23.48-1.73,34.54-5.59,7.9-2.76,15.17-7.57,19.21-15.08C243.1,78.54,240.69,62.65,233.15,50.8Zm-6.52,42.81c-4.66,4.64-11.13,6.42-17.43,7.5-13.4,2.3-26.79,1.94-40.32,2.23-7.68.16-15.37,0.18-23.05-.13-4.78-.19-9.49-0.67-14.27-0.81-2.46-.07-5.11-0.59-6.8-2.45a10.77,10.77,0,0,1-2-3.7c-2.27-6.35-3.13-13.05-3.64-19.77a86.39,86.39,0,0,1,2.4-28.36,43.81,43.81,0,0,1,4.15-9.52,12.78,12.78,0,0,1,4.84-5c6.91-4.05,16.54-3.41,24.26-3.52,11.24-.17,22.55.2,33.63,2.2,10.05,1.82,21,4.93,29.41,10.95,13.5,9.67,20.59,29.84,12.58,45.21a21.24,21.24,0,0,1-3,4.4Q227,93.22,226.63,93.61Z"
          transform="translate(-52.94 -24.28)"/>
</svg>