<svg id="Слой_4" data-name="Слой 4" xmlns="http://www.w3.org/2000/svg" viewBox="0 0 323.02 133.14">
    <defs>
        <style>.cls-1{fill:#eb5346;}</style>
    </defs>
    <title>фара</title>
    <path class="cls-1"
          d="M733.31,217.9c-9.58-.49-10.31,13.51-10.31,13.51l-0.22,6.38,36.07,12S742.88,218.39,733.31,217.9Z"
          transform="translate(-561.15 -204.84)"/>
    <circle class="cls-1" cx="86.71" cy="55.3" r="9.09"/>
    <path class="cls-1"
          d="M637.29,256.08a9.09,9.09,0,0,1,9.54-5.82l0.1-.26-7.47-2.82a9.09,9.09,0,0,0-6.41,17l7.47,2.82,0.1-.26A9.09,9.09,0,0,1,637.29,256.08Z"
          transform="translate(-561.15 -204.84)"/>
    <path class="cls-1"
          d="M727.18,279.53a7.08,7.08,0,0,1,7.44-4.54l0.08-.2-5.82-2.19a7.08,7.08,0,0,0-9.12,4.13h0a7.08,7.08,0,0,0,4.13,9.12L729.7,288l0.08-.2A7.08,7.08,0,0,1,727.18,279.53Z"
          transform="translate(-561.15 -204.84)"/>
    <circle class="cls-1" cx="174.1" cy="78.01" r="6.73"/>
    <path class="cls-1"
          d="M873.76,309.74c-2.24-1.89-23.3-13.21-47.73-25.68v-1.21h-1.55v0.42c-26.11-13.3-55.65-27.69-70.06-33.2-28.24-10.8-127.68-33.15-138.73-34.38-17.27-1.92-34.59-6.65-51.46-10.7a2.9,2.9,0,0,0-1.5-.09c-2.72.82-1.11,10-1.06,12,0.2,7.15,4.35,15.17,6.78,21.74,4,10.91,8.35,21.73,12.71,32.52q2.67,6.62,5.41,13.23c0.23,0.55,2.7,5.19,2.36,5.69l-3.58,5.16c-1.15,1.66-2.53,3.22-3.79,4.8a4.51,4.51,0,0,0-1.19,2.69c0,1.8,3.23,3.5,4.47,4.49,2.64,2.11,5.63,5.22,8.79,6.29A38.76,38.76,0,0,0,605.27,315c9.31,0,16.37,3.19,24.17,8.21,17.92,11.54,71,11.54,71,11.54L758.35,338l2.7-1.47L766.7,338l66.05-1.72s10.07-1,15.22-2.44c4.6-1.3,9.59-.41,14.24,0l1.69-2.18c-0.26.34,4.9,1.77,5.36,1.82a13,13,0,0,0,6.06-.89c3.28-1.33,8-4.68,8.75-8.34C885.06,319.31,878.43,313.66,873.76,309.74ZM783.18,290.8v26.28a19.84,19.84,0,0,1-2.58-3.58V294.38A19.84,19.84,0,0,1,783.18,290.8Zm1.55-1.54a20.2,20.2,0,0,1,2.58-1.94v33.24a20.2,20.2,0,0,1-2.58-1.94V289.26Zm4.13-2.83a20.22,20.22,0,0,1,2.58-1.12v37.26a20.22,20.22,0,0,1-2.58-1.12v-35Zm4.13-1.59a20.37,20.37,0,0,1,2.58-.51v39.22A20.37,20.37,0,0,1,793,323V284.83Zm12.39,0.6a20.22,20.22,0,0,1,2.58,1.17v34.67a20.22,20.22,0,0,1-2.58,1.17v-37ZM803.83,323a20.33,20.33,0,0,1-2.58.56V284.37a20.33,20.33,0,0,1,2.58.56v38Zm5.68-35.42a20.18,20.18,0,0,1,2.58,2v28.73a20.18,20.18,0,0,1-2.58,2V287.53Zm4.13,3.65a19.79,19.79,0,0,1,2.58,3.83v17.86a19.79,19.79,0,0,1-2.58,3.83V291.18ZM648.23,308.51c-22.17,0-40.15-17-40.15-38.06s18-38.06,40.15-38.06c16.1,0,30,9,36.39,22a50.52,50.52,0,0,0-1.41,9.7,34.61,34.61,0,0,0,3.5,17.3C681.76,297.06,666.4,308.51,648.23,308.51Zm88.83,15a34.25,34.25,0,1,1,31-47.33l-0.14.11c-5.47,4.1-7.25,11.22-6.74,17.76a25.33,25.33,0,0,0,2.34,9.38,20.72,20.72,0,0,0,2.23,3.4A34.34,34.34,0,0,1,737.05,323.56Zm42-25.65V310A19.5,19.5,0,0,1,779,297.91Zm18.07,25.79V284.18c0.37,0,.75,0,1.12,0s1,0,1.46.06v39.47c-0.48,0-1,.06-1.46.06S797.49,323.72,797.12,323.7Zm20.65-14.88v-9.77A19.55,19.55,0,0,1,817.77,308.82Z"
          transform="translate(-561.15 -204.84)"/>
</svg>