<svg id="Слой_4" data-name="Слой 4" xmlns="http://www.w3.org/2000/svg" viewBox="0 0 160.52 84.3">
    <defs>
        <style>.cls-1{fill:#eb5346;}</style>
    </defs>
    <title>крыло</title>
    <path class="cls-1"
          d="M1229.89,74.33c-2.64,0-9.1-3.83-9.1-3.83s-5.46-12.17-6.5-14,10.92-2.93,8.68-4.28S1125.91,33.08,1116,31.81s-29.11-4.59-29.11-4.59L1070,29.47c8.06,18.48,1.82,76,1.82,76l1.3,5.18,10.66,0.9,0.84,0q-0.06-1.18-.06-2.38c0-27.84,25.6-50.41,57.19-50.41s57,22.4,57.19,50.1h0s1.3,0.45,11.18,0a46.15,46.15,0,0,0,16.12-3.38S1232.53,74.33,1229.89,74.33ZM1089.26,48.41h-13V44.35h13v4.06Z"
          transform="translate(-1070.02 -27.22)"/>
</svg>