<svg id="Слой_4" data-name="Слой 4" xmlns="http://www.w3.org/2000/svg" viewBox="0 0 160.52 84.3">
    <defs>
        <style>.cls-1{fill:#eb5346;}</style>
    </defs>
    <title>передняя_часть_крыла</title>
    <path class="cls-1"
          d="M876,32.28c3.7,0.63,19.69,3.35,28.57,4.49,3.19,0.41,16.75,2.81,35.06,6.21V54.26a69.84,69.84,0,0,0-8.69-.54c-33.17,0-60.36,23.26-62.1,52.44l-2.54-.22-0.21-.86c0.87-8.27,4.84-49.89-.32-71.44L876,32.28M876,27.22l-16.9,2.25c8.06,18.48,1.82,76,1.82,76l1.3,5.18,10.66,0.9,0.84,0q-0.06-1.18-.06-2.38c0-27.84,25.6-50.41,57.19-50.41a64.63,64.63,0,0,1,13.69,1.46V38.82c-19-3.54-35.6-6.52-39.42-7C895.28,30.53,876,27.22,876,27.22h0Z"
          transform="translate(-859.15 -27.22)"/>
    <rect class="cls-1" x="6.24" y="17.13" width="13" height="4.06"/>
    <path class="cls-1"
          d="M1019,74.33c-2.64,0-9.1-3.83-9.1-3.83s-5.46-12.17-6.5-14,10.92-2.93,8.68-4.28c-1.37-.83-37.47-7.83-67.52-13.42V60.18c24.86,5.39,43.34,25.09,43.5,48.64h0s1.3,0.45,11.18,0a46.15,46.15,0,0,0,16.12-3.38S1021.66,74.33,1019,74.33Z"
          transform="translate(-859.15 -27.22)"/>
</svg>