<svg id="Слой_5" data-name="Слой 5" xmlns="http://www.w3.org/2000/svg" viewBox="0 0 246.81 73.12">
    <defs>
        <style>.cls-1{fill:#eb5346;}</style>
    </defs>
    <title>задний_бампер</title>
    <path class="cls-1"
          d="M818.43,32.81l-6,13.63s-28.43,9.28-67.23,11a22.55,22.55,0,0,1-5.35,2.61c-3.34,1.16-42.46,0-42.46,0s-39.12,1.16-42.46,0a22.55,22.55,0,0,1-5.35-2.61c-38.8-1.74-67.23-11-67.23-11l-6-13.63L574,46.73s0.67,22.91,2.34,27.55,5,4.06,5.35,6.38,2.34,11,12.71,15.66c8.41,3.76,70.93,7.91,94.26,9.34a142.73,142.73,0,0,0,17.49,0c23.33-1.43,85.85-5.58,94.26-9.34,10.37-4.64,12.38-13.34,12.71-15.66s3.68-1.74,5.35-6.38,2.34-27.55,2.34-27.55ZM808.21,66.88a2.55,2.55,0,0,1-2.12,2.45L746.91,79.5a2.55,2.55,0,0,1-.42,0l-95,.3a2.55,2.55,0,0,1-.53-0.05L590.75,67.3a2.55,2.55,0,0,1-2-2.55V64.54a2.55,2.55,0,0,1,3-2.44l58.56,11.49a2.54,2.54,0,0,0,.49,0l94.79-.1a2.54,2.54,0,0,0,.4,0l59.26-9.6a2.55,2.55,0,0,1,3,2.57v0.4Z"
          transform="translate(-573.97 -32.81)"/>
</svg>