<svg id="Слой_4" data-name="Слой 4" xmlns="http://www.w3.org/2000/svg" viewBox="0 0 207.33 159.65">
    <defs>
        <style>.cls-1{fill:none;stroke:#eb5346;stroke-miterlimit:10;stroke-width:4px;}.cls-2{fill:#eb5346;}</style>
    </defs>
    <title>капот_перед</title>
    <path class="cls-1"
          d="M511,194.43c-23.61,15.15-60.37,24.89-101.67,24.89s-78.06-9.74-101.67-24.89v94.08a39.06,39.06,0,0,0,14,30c6.58,5.48,13.44,11.19,19.74,16.42a58.32,58.32,0,0,0,34.48,13.37l-0.23-2.77h0c0.13,1.16.23,2.1,0.29,2.78,0.9,0,1.8.07,2.7,0.07H439a61.06,61.06,0,0,0,7.17-.43l0.1-1h0l-0.08.95A61,61,0,0,0,478,334.32l15.66-13A48.27,48.27,0,0,0,511,284.2C511,251.39,511,194.43,511,194.43Z"
          transform="translate(-305.66 -190.77)"/>
    <path class="cls-2"
          d="M370.49,282.72l5.21,62.82c0.13,1.16.23,2.1,0.29,2.78,0.9,0,1.8.07,2.7,0.07H439a61.06,61.06,0,0,0,7.17-.43l0.1-1,5.33-64.28H370.49Z"
          transform="translate(-305.66 -190.77)"/>
    <path class="cls-2"
          d="M307.66,282.72v5.79a39.06,39.06,0,0,0,14,30c6.58,5.48,13.44,11.19,19.74,16.42a58.32,58.32,0,0,0,34.48,13.37l-0.23-2.77c-1.16-10.38-4.85-38.73-8-62.82h-60Z"
          transform="translate(-305.66 -190.77)"/>
    <path class="cls-2"
          d="M454.47,282.72c-3.22,24.4-7,53.69-8.22,64.28l-0.08.95A61,61,0,0,0,478,334.32l15.66-13A48.27,48.27,0,0,0,511,284.2v-1.48H454.47Z"
          transform="translate(-305.66 -190.77)"/>
</svg>