<svg id="Слой_4" data-name="Слой 4" xmlns="http://www.w3.org/2000/svg" viewBox="0 0 189.44 96.97">
    <defs>
        <style>.cls-1{fill:#eb5346;}</style>
    </defs>
    <title>противотуманки</title>
    <path class="cls-1"
          d="M1497,63.1l9.71-2.25L1531.81,55l34.5-8,37.88-8.79,35.24-8.17c7.33-1.7,14.69-3.33,22-5.15,5.06-1.26,10.06-2.78,15.21-3.65,4.75-.8,8.31-0.79,9.21,4.72,2.53,15.45-3.53,32.2-7.34,47-1.1,4.26-2.23,8.51-3.34,12.76-1,3.79-1.78,7.79-4.6,10.71-3.11,3.23-7.1,3.33-11.23,4-3.5.61-7,1.35-10.49,2q-12,2.09-24,4c-16,2.57-32,4.94-48,7.24-9.75,1.4-19.65,2.38-29.35,4.14L1646,100c6.45-1.17,13.51-2.69,17.52-7.88a26.38,26.38,0,0,0,3.36-6.62C1672.8,70.41,1678.28,55,1681.12,39c0.62-3.5,1-7.39-.91-10.36-2.93-4.46-8.92-4.32-13.49-3.08-14,3.78-28.13,6.52-42.26,9.62L1593.27,42,1561,49.07l-29.34,6.43-22.42,4.91-11.51,2.52Z"
          transform="translate(-1497 -20.88)"/>
    <path class="cls-1"
          d="M1631.61,35.91l34.29-7.5a3.37,3.37,0,0,1,4,3.88c-2.25,12.61-8.67,45.53-15.59,53.5-8.61,9.92-11,8.87-19.57,11.22-8.35,2.28-75.13,11.43-79.14,12l-0.39,0c-1.28,0-8.23,0-11.54-2.09l-0.11-.07a3.37,3.37,0,0,1,.83-6c16.51-5.29,67.12-21.57,69.74-22.88,2.88-1.44,13.71-28.5,14.82-39.12A3.36,3.36,0,0,1,1631.61,35.91Z"
          transform="translate(-1497 -20.88)"/>
    <polygon class="cls-1" points="121.99 20.93 23.15 42.85 121.99 25.24 121.99 20.93"/>
    <polygon class="cls-1" points="120.03 31.89 21.19 53.81 120.03 36.2 120.03 31.89"/>
    <polygon class="cls-1" points="117.23 42.85 42.72 59.38 117.23 46.1 117.23 42.85"/>
</svg>