<svg id="Слой_6" data-name="Слой 6" xmlns="http://www.w3.org/2000/svg" viewBox="0 0 191.73 33.25">
    <defs>
        <style>.cls-1{fill:#eb5346;fill-rule:evenodd;}</style>
    </defs>
    <title>ручка</title>
    <path class="cls-1"
          d="M1312.6,83.71V57.06l2.24-1.94c-6,.71-12,1.5-18.05,2.29a31,31,0,0,0-8.72,2l-0.43.2c-4.19,2.06-6.89,6.22-6.74,10.39s2.83,7.18,6.5,9.56c3.45,2.23,7.94,3.26,12.1,4.16a99.27,99.27,0,0,0,14.13,1.92l1.16,0.07Z"
          transform="translate(-1280.89 -52.74)"/>
    <path class="cls-1"
          d="M1472.6,66c-0.22-3.63-3-6.86-6.59-8.8s-7.75-2.76-11.9-3.27a91.89,91.89,0,0,0-18.22-.39c-1.95.15-4,.41-5.51,1.5a13.45,13.45,0,0,1-2.09,1.58,6.73,6.73,0,0,1-2.57.44l-27.39,1.06c-10.93.42-21.87,0.85-32.81,0.53-5.82-.17-11.84-0.6-16.93-3-1.92-.92-3.72-2.13-5.86-2.56-3.43-.69-7,0-10.47.34-4,.36-7.93.69-11.88,1.12l-3.1.34-2.62,2.11V83.59l2.75,2.26c8.3,0.34,16.62,0,24.91-.39a11.71,11.71,0,0,0,4.43-.78c1.51-.71,2.5-2,3.77-3,3.36-2.63,8.27-3,12.79-3.13,21.13-.79,42.23-0.84,63.38-0.84,1.11,0,2.91-.25,3.82.49,0.6,0.48.64,1.29,1.06,1.89,0.87,1.26,2.94,1.25,4.63,1.08l13.29-1.3c5.16-.5,10.46-1,15-3.17S1472.88,70.5,1472.6,66ZM1332.19,76c-3.37,0-6.1-2.37-6.1-5.29s2.73-5.29,6.1-5.29,6.1,2.37,6.1,5.29S1335.56,76,1332.19,76Z"
          transform="translate(-1280.89 -52.74)"/>
</svg>